<svg width="40" height="40" viewBox="0 0 40 40" fill="none" xmlns="http://www.w3.org/2000/svg">
<g clip-path="url(#clip0_10103_6)">
<path d="M39.9023 37.3864L38.2047 31.3961C37.8701 30.2157 37.9309 28.9531 38.4116 27.8244C39.5251 25.2111 40.097 22.3149 39.9875 19.2726C39.6103 8.70976 30.9276 0.19135 20.3617 0.00272783C9.0292 -0.198063 -0.198063 9.0292 0.00272783 20.3617C0.19135 30.9276 8.70976 39.6103 19.2695 39.9875C21.9285 40.0818 24.4749 39.6559 26.8205 38.8041C28.6885 38.1256 30.7177 38.01 32.6282 38.5546L37.3803 39.9054C38.9166 40.3435 40.3374 38.9227 39.9023 37.3864ZM11.0645 19.9997C11.0645 15.0651 15.0651 11.0645 19.9997 11.0645C24.9343 11.0645 28.9349 15.0651 28.9349 19.9997C28.9349 24.9343 24.9343 28.9349 19.9997 28.9349C15.0651 28.9349 11.0645 24.9343 11.0645 19.9997Z" fill="url(#paint0_linear_10103_6)"/>
<path d="M37.8917 28.8704C37.8917 28.8704 37.8217 28.6483 37.6848 28.2528C36.62 25.2349 31.442 12.1682 21.2047 11C25.5704 11.5872 28.9352 15.3261 28.9352 19.85C28.9352 24.7846 24.9346 28.7852 20 28.7852V39.847C22.3943 39.847 24.6912 39.4302 26.8208 38.6574C28.6888 37.979 30.718 37.8634 32.6285 38.408L37.3806 39.7587C38.917 40.1938 40.3377 38.7761 39.9027 37.2367L38.2051 31.2464C38.0043 30.5437 37.9495 29.8074 38.0377 29.0925L37.8917 28.8704Z" fill="url(#paint1_linear_10103_6)"/>
</g>
<defs>
<linearGradient id="paint0_linear_10103_6" x1="4.85174" y1="-0.000474682" x2="40.3752" y2="2.96995" gradientUnits="userSpaceOnUse">
<stop stop-color="#DF5950"/>
<stop offset="1" stop-color="#451046"/>
</linearGradient>
<linearGradient id="paint1_linear_10103_6" x1="22.4239" y1="11" x2="40.2336" y2="12.0316" gradientUnits="userSpaceOnUse">
<stop stop-color="#DF5950"/>
<stop offset="1" stop-color="#451046"/>
</linearGradient>
<clipPath id="clip0_10103_6">
<rect width="40" height="40" fill="white"/>
</clipPath>
</defs>
</svg>
